<svg width="1278" height="1413" viewBox="0 0 1278 1413" fill="none" xmlns="http://www.w3.org/2000/svg">
<path d="M976.419 414.007C1044.97 384.227 1126.73 368.032 1248.32 374.568L1247.89 382.557C1127.29 376.073 1046.81 392.151 979.606 421.345C912.194 450.63 858.033 493.112 789.628 540.19C652.815 634.346 461.913 744.593 3.05273 796.537L2.15234 788.588C459.697 736.792 649.353 627.018 785.093 533.6C852.964 486.89 908.078 443.696 976.419 414.007Z" fill="white"/>
<path d="M1253.84 805.639C1281.12 877.271 1283.75 935.149 1266.56 981.627C1249.35 1028.13 1212.56 1062.5 1162.51 1087.65C1062.66 1137.82 908.539 1152.03 745.41 1152.35C582.152 1152.68 408.834 1139.07 270.518 1133.1C201.266 1130.11 140.841 1129.04 94.6494 1132.53C71.5487 1134.28 52.1708 1137.16 37.1006 1141.44C21.9207 1145.76 11.6888 1151.35 6.20508 1158.09L0 1153.04C7.04699 1144.38 19.2143 1138.21 34.9121 1133.75C50.7195 1129.25 70.6984 1126.32 94.0459 1124.56C140.752 1121.02 201.59 1122.12 270.862 1125.11C409.593 1131.09 582.364 1144.68 745.395 1144.35C908.554 1144.02 1060.93 1129.74 1158.92 1080.5C1207.79 1055.95 1242.76 1022.89 1259.06 978.851C1275.36 934.785 1273.22 879.007 1246.36 808.486L1253.84 805.639Z" fill="white"/>
<path d="M706.593 1.34766C678.143 398.907 575.472 638.953 464.355 836.148C353.158 1033.49 234.378 1186.71 172.46 1412.12L164.745 1410C227.011 1183.32 346.83 1028.42 457.386 832.221C568.023 635.875 670.26 396.966 698.612 0.777344L706.593 1.34766Z" fill="white"/>
<path d="M1074.96 2.125C988.127 317.325 958.985 515.421 958.471 711.019C957.955 906.837 986.107 1100.1 1014.09 1406.2L1006.12 1406.93C978.192 1101.39 949.954 907.315 950.471 710.997C950.988 514.458 980.298 315.621 1067.25 0L1074.96 2.125Z" fill="white"/>
</svg>
